# xmcd
#
# Track frame offsets: 
#        150
#        13258
#        31072
#        44665
#        58414
#        72414
#        84942
#        97315
#        112812
#        129434
#        144268
#        161163
#        170620
#        201663
#
# Disc length: 3730 seconds
#
# Revision: 3
# Processed by: cddbd v1.5.1PL2 Copyright (c) Steve Scherf et al.
# Submitted via: ExactAudioCopy v0.95b3
#
DISCID=ce0e900e
DTITLE=Nezmari - Davno se zname
DYEAR=1997
DGENRE=Folk
TTITLE0=Hledam drahokam
TTITLE1=Kde jsi, kdyz se trapim - Little Failings
TTITLE2=Andelska
TTITLE3=Fata Morgana
TTITLE4=Pritel
TTITLE5=Vecery pri svickach
TTITLE6=Jako kdyz se vali kameny
TTITLE7=Kdosi pro me rikal
TTITLE8=Neco za neco
TTITLE9=Neodchazej - Sad lisa
TTITLE10=Boure - Ready For The Storm
TTITLE11=Dávno se zname - Quetate
TTITLE12=Ruze - The Rose
TTITLE13=Stopa 14
EXTD=
EXTT0=
EXTT1=
EXTT2=
EXTT3=
EXTT4=
EXTT5=
EXTT6=
EXTT7=
EXTT8=
EXTT9=
EXTT10=
EXTT11=
EXTT12=
EXTT13=
PLAYORDER=
